<mxfile host="app.diagrams.net" agent="Mozilla/5.0 (Windows NT 10.0; Win64; x64) AppleWebKit/537.36 (KHTML, like Gecko) Chrome/129.0.0.0 Safari/537.36" version="24.7.17">
  <diagram name="Página-1" id="XVklmOQ_ffI0HY0bFErE">
    <mxGraphModel dx="1467" dy="847" grid="1" gridSize="10" guides="1" tooltips="1" connect="1" arrows="1" fold="1" page="1" pageScale="1" pageWidth="827" pageHeight="1169" math="0" shadow="0">
      <root>
        <mxCell id="0" />
        <mxCell id="1" parent="0" />
        <mxCell id="BQ4N9j2RJxe5oMDn88Q8-84" value="Actualizar contraseña" style="swimlane;html=1;childLayout=stackLayout;startSize=20;rounded=0;shadow=0;comic=0;labelBackgroundColor=none;strokeWidth=1;fontFamily=Verdana;fontSize=12;align=center;" vertex="1" parent="1">
          <mxGeometry x="100" y="20" width="1290" height="1780" as="geometry" />
        </mxCell>
        <mxCell id="BQ4N9j2RJxe5oMDn88Q8-85" value="API" style="swimlane;html=1;startSize=20;" vertex="1" parent="BQ4N9j2RJxe5oMDn88Q8-84">
          <mxGeometry y="20" width="240" height="1760" as="geometry" />
        </mxCell>
        <mxCell id="BQ4N9j2RJxe5oMDn88Q8-86" value="Actualizar base de datos con la contraseña nueva" style="rounded=1;whiteSpace=wrap;html=1;shadow=0;comic=0;labelBackgroundColor=none;strokeWidth=1;fontFamily=Verdana;fontSize=12;align=center;arcSize=50;" vertex="1" parent="BQ4N9j2RJxe5oMDn88Q8-85">
          <mxGeometry x="57.5" y="1350" width="125" height="64" as="geometry" />
        </mxCell>
        <mxCell id="BQ4N9j2RJxe5oMDn88Q8-87" style="edgeStyle=orthogonalEdgeStyle;rounded=0;orthogonalLoop=1;jettySize=auto;html=1;" edge="1" parent="BQ4N9j2RJxe5oMDn88Q8-84" source="BQ4N9j2RJxe5oMDn88Q8-121" target="BQ4N9j2RJxe5oMDn88Q8-105">
          <mxGeometry relative="1" as="geometry">
            <Array as="points">
              <mxPoint x="860" y="360" />
            </Array>
          </mxGeometry>
        </mxCell>
        <mxCell id="BQ4N9j2RJxe5oMDn88Q8-88" style="edgeStyle=orthogonalEdgeStyle;rounded=0;orthogonalLoop=1;jettySize=auto;html=1;" edge="1" parent="BQ4N9j2RJxe5oMDn88Q8-84" source="BQ4N9j2RJxe5oMDn88Q8-105" target="BQ4N9j2RJxe5oMDn88Q8-101">
          <mxGeometry relative="1" as="geometry" />
        </mxCell>
        <mxCell id="BQ4N9j2RJxe5oMDn88Q8-89" style="edgeStyle=orthogonalEdgeStyle;rounded=0;orthogonalLoop=1;jettySize=auto;html=1;" edge="1" parent="BQ4N9j2RJxe5oMDn88Q8-84" source="BQ4N9j2RJxe5oMDn88Q8-101" target="BQ4N9j2RJxe5oMDn88Q8-123">
          <mxGeometry relative="1" as="geometry">
            <Array as="points">
              <mxPoint x="590" y="470" />
            </Array>
          </mxGeometry>
        </mxCell>
        <mxCell id="BQ4N9j2RJxe5oMDn88Q8-90" style="edgeStyle=orthogonalEdgeStyle;rounded=0;orthogonalLoop=1;jettySize=auto;html=1;" edge="1" parent="BQ4N9j2RJxe5oMDn88Q8-84" source="BQ4N9j2RJxe5oMDn88Q8-123" target="BQ4N9j2RJxe5oMDn88Q8-102">
          <mxGeometry relative="1" as="geometry">
            <Array as="points">
              <mxPoint x="1080" y="570" />
            </Array>
          </mxGeometry>
        </mxCell>
        <mxCell id="BQ4N9j2RJxe5oMDn88Q8-91" style="edgeStyle=orthogonalEdgeStyle;rounded=0;orthogonalLoop=1;jettySize=auto;html=1;" edge="1" parent="BQ4N9j2RJxe5oMDn88Q8-84" source="BQ4N9j2RJxe5oMDn88Q8-102" target="BQ4N9j2RJxe5oMDn88Q8-122">
          <mxGeometry relative="1" as="geometry">
            <Array as="points">
              <mxPoint x="640" y="640" />
            </Array>
          </mxGeometry>
        </mxCell>
        <mxCell id="BQ4N9j2RJxe5oMDn88Q8-92" style="edgeStyle=orthogonalEdgeStyle;rounded=0;orthogonalLoop=1;jettySize=auto;html=1;" edge="1" parent="BQ4N9j2RJxe5oMDn88Q8-84" source="BQ4N9j2RJxe5oMDn88Q8-122" target="BQ4N9j2RJxe5oMDn88Q8-103">
          <mxGeometry relative="1" as="geometry">
            <Array as="points">
              <mxPoint x="1080" y="730" />
            </Array>
          </mxGeometry>
        </mxCell>
        <mxCell id="BQ4N9j2RJxe5oMDn88Q8-93" style="edgeStyle=orthogonalEdgeStyle;rounded=0;orthogonalLoop=1;jettySize=auto;html=1;" edge="1" parent="BQ4N9j2RJxe5oMDn88Q8-84" source="BQ4N9j2RJxe5oMDn88Q8-103" target="BQ4N9j2RJxe5oMDn88Q8-124">
          <mxGeometry relative="1" as="geometry">
            <Array as="points">
              <mxPoint x="600" y="800" />
            </Array>
          </mxGeometry>
        </mxCell>
        <mxCell id="BQ4N9j2RJxe5oMDn88Q8-94" style="edgeStyle=orthogonalEdgeStyle;rounded=0;orthogonalLoop=1;jettySize=auto;html=1;" edge="1" parent="BQ4N9j2RJxe5oMDn88Q8-84" source="BQ4N9j2RJxe5oMDn88Q8-124" target="BQ4N9j2RJxe5oMDn88Q8-106">
          <mxGeometry relative="1" as="geometry">
            <Array as="points">
              <mxPoint x="910" y="830" />
              <mxPoint x="910" y="910" />
            </Array>
          </mxGeometry>
        </mxCell>
        <mxCell id="BQ4N9j2RJxe5oMDn88Q8-95" style="edgeStyle=orthogonalEdgeStyle;rounded=0;orthogonalLoop=1;jettySize=auto;html=1;" edge="1" parent="BQ4N9j2RJxe5oMDn88Q8-84" source="BQ4N9j2RJxe5oMDn88Q8-106" target="BQ4N9j2RJxe5oMDn88Q8-126">
          <mxGeometry relative="1" as="geometry">
            <Array as="points">
              <mxPoint x="821" y="950" />
            </Array>
          </mxGeometry>
        </mxCell>
        <mxCell id="BQ4N9j2RJxe5oMDn88Q8-96" style="edgeStyle=orthogonalEdgeStyle;rounded=0;orthogonalLoop=1;jettySize=auto;html=1;" edge="1" parent="BQ4N9j2RJxe5oMDn88Q8-84" source="BQ4N9j2RJxe5oMDn88Q8-107" target="BQ4N9j2RJxe5oMDn88Q8-126">
          <mxGeometry relative="1" as="geometry">
            <Array as="points">
              <mxPoint x="840" y="980" />
            </Array>
          </mxGeometry>
        </mxCell>
        <mxCell id="BQ4N9j2RJxe5oMDn88Q8-97" style="edgeStyle=orthogonalEdgeStyle;rounded=0;orthogonalLoop=1;jettySize=auto;html=1;" edge="1" parent="BQ4N9j2RJxe5oMDn88Q8-84" source="BQ4N9j2RJxe5oMDn88Q8-127" target="BQ4N9j2RJxe5oMDn88Q8-110">
          <mxGeometry relative="1" as="geometry">
            <Array as="points">
              <mxPoint x="829" y="1310" />
            </Array>
          </mxGeometry>
        </mxCell>
        <mxCell id="BQ4N9j2RJxe5oMDn88Q8-98" value="Cuenta" style="swimlane;html=1;startSize=20;" vertex="1" parent="BQ4N9j2RJxe5oMDn88Q8-84">
          <mxGeometry x="240" y="20" width="240" height="1760" as="geometry" />
        </mxCell>
        <mxCell id="BQ4N9j2RJxe5oMDn88Q8-99" value="Enviar contraseña cambiada" style="rounded=1;whiteSpace=wrap;html=1;shadow=0;comic=0;labelBackgroundColor=none;strokeWidth=1;fontFamily=Verdana;fontSize=12;align=center;arcSize=50;" vertex="1" parent="BQ4N9j2RJxe5oMDn88Q8-98">
          <mxGeometry x="62.499999999999886" y="1360" width="115" height="70" as="geometry" />
        </mxCell>
        <mxCell id="BQ4N9j2RJxe5oMDn88Q8-100" value="BaseRouter" style="swimlane;html=1;startSize=20;" vertex="1" parent="BQ4N9j2RJxe5oMDn88Q8-84">
          <mxGeometry x="480" y="20" width="220" height="1760" as="geometry" />
        </mxCell>
        <mxCell id="BQ4N9j2RJxe5oMDn88Q8-101" value="Cambio de pagina a Home" style="rounded=1;whiteSpace=wrap;html=1;shadow=0;comic=0;labelBackgroundColor=none;strokeWidth=1;fontFamily=Verdana;fontSize=12;align=center;arcSize=50;" vertex="1" parent="BQ4N9j2RJxe5oMDn88Q8-100">
          <mxGeometry x="76" y="310" width="102" height="60" as="geometry" />
        </mxCell>
        <mxCell id="BQ4N9j2RJxe5oMDn88Q8-102" value="Cambio de pagina a Cuenta" style="rounded=1;whiteSpace=wrap;html=1;shadow=0;comic=0;labelBackgroundColor=none;strokeWidth=1;fontFamily=Verdana;fontSize=12;align=center;arcSize=50;" vertex="1" parent="BQ4N9j2RJxe5oMDn88Q8-100">
          <mxGeometry x="88" y="520" width="102" height="60" as="geometry" />
        </mxCell>
        <mxCell id="BQ4N9j2RJxe5oMDn88Q8-103" value="Cambio de pagina a configuracion" style="rounded=1;whiteSpace=wrap;html=1;shadow=0;comic=0;labelBackgroundColor=none;strokeWidth=1;fontFamily=Verdana;fontSize=12;align=center;arcSize=50;" vertex="1" parent="BQ4N9j2RJxe5oMDn88Q8-100">
          <mxGeometry x="76" y="680" width="102" height="60" as="geometry" />
        </mxCell>
        <mxCell id="BQ4N9j2RJxe5oMDn88Q8-104" value="APP" style="swimlane;html=1;startSize=20;" vertex="1" parent="BQ4N9j2RJxe5oMDn88Q8-84">
          <mxGeometry x="700" y="20" width="230" height="1760" as="geometry" />
        </mxCell>
        <mxCell id="BQ4N9j2RJxe5oMDn88Q8-105" value="Notificar que inicio sesion correctamente" style="rounded=1;whiteSpace=wrap;html=1;shadow=0;comic=0;labelBackgroundColor=none;strokeWidth=1;fontFamily=Verdana;fontSize=12;align=center;arcSize=50;" vertex="1" parent="BQ4N9j2RJxe5oMDn88Q8-104">
          <mxGeometry x="64" y="310" width="102" height="60" as="geometry" />
        </mxCell>
        <mxCell id="BQ4N9j2RJxe5oMDn88Q8-106" value="Pide rellenar formulario de cambio de contraseña" style="rounded=1;whiteSpace=wrap;html=1;shadow=0;comic=0;labelBackgroundColor=none;strokeWidth=1;fontFamily=Verdana;fontSize=12;align=center;arcSize=50;" vertex="1" parent="BQ4N9j2RJxe5oMDn88Q8-104">
          <mxGeometry x="70" y="860" width="102" height="60" as="geometry" />
        </mxCell>
        <mxCell id="BQ4N9j2RJxe5oMDn88Q8-107" value="Notificar que la contraseña no es valida" style="rounded=1;whiteSpace=wrap;html=1;shadow=0;comic=0;labelBackgroundColor=none;strokeWidth=1;fontFamily=Verdana;fontSize=12;align=center;arcSize=50;" vertex="1" parent="BQ4N9j2RJxe5oMDn88Q8-104">
          <mxGeometry x="70" y="1030" width="115" height="70" as="geometry" />
        </mxCell>
        <mxCell id="BQ4N9j2RJxe5oMDn88Q8-108" style="edgeStyle=orthogonalEdgeStyle;rounded=0;orthogonalLoop=1;jettySize=auto;html=1;" edge="1" parent="BQ4N9j2RJxe5oMDn88Q8-104" source="BQ4N9j2RJxe5oMDn88Q8-110" target="BQ4N9j2RJxe5oMDn88Q8-107">
          <mxGeometry relative="1" as="geometry">
            <Array as="points">
              <mxPoint x="130" y="1170" />
              <mxPoint x="127" y="1170" />
            </Array>
          </mxGeometry>
        </mxCell>
        <mxCell id="BQ4N9j2RJxe5oMDn88Q8-109" value="No" style="edgeLabel;html=1;align=center;verticalAlign=middle;resizable=0;points=[];" vertex="1" connectable="0" parent="BQ4N9j2RJxe5oMDn88Q8-108">
          <mxGeometry x="-0.19" y="-3" relative="1" as="geometry">
            <mxPoint y="41" as="offset" />
          </mxGeometry>
        </mxCell>
        <mxCell id="BQ4N9j2RJxe5oMDn88Q8-110" value="&lt;font style=&quot;font-size: 11px;&quot;&gt;¿La contraseña es valida?&lt;/font&gt;" style="rhombus;whiteSpace=wrap;html=1;align=center;" vertex="1" parent="BQ4N9j2RJxe5oMDn88Q8-104">
          <mxGeometry x="90" y="1240" width="104.75" height="100" as="geometry" />
        </mxCell>
        <mxCell id="BQ4N9j2RJxe5oMDn88Q8-111" style="edgeStyle=orthogonalEdgeStyle;rounded=0;orthogonalLoop=1;jettySize=auto;html=1;" edge="1" parent="BQ4N9j2RJxe5oMDn88Q8-104" source="BQ4N9j2RJxe5oMDn88Q8-112" target="BQ4N9j2RJxe5oMDn88Q8-113">
          <mxGeometry relative="1" as="geometry" />
        </mxCell>
        <mxCell id="BQ4N9j2RJxe5oMDn88Q8-112" value="Notificar que el cambio de contraseña fue exitoso" style="rounded=1;whiteSpace=wrap;html=1;shadow=0;comic=0;labelBackgroundColor=none;strokeWidth=1;fontFamily=Verdana;fontSize=12;align=center;arcSize=50;" vertex="1" parent="BQ4N9j2RJxe5oMDn88Q8-104">
          <mxGeometry x="57.5" y="1500" width="132.5" height="80" as="geometry" />
        </mxCell>
        <mxCell id="BQ4N9j2RJxe5oMDn88Q8-113" value="" style="shape=mxgraph.bpmn.shape;html=1;verticalLabelPosition=bottom;labelBackgroundColor=#ffffff;verticalAlign=top;perimeter=ellipsePerimeter;outline=end;symbol=terminate;rounded=0;shadow=0;comic=0;strokeWidth=1;fontFamily=Verdana;fontSize=12;align=center;direction=south;" vertex="1" parent="BQ4N9j2RJxe5oMDn88Q8-104">
          <mxGeometry x="103.75" y="1670" width="40" height="40" as="geometry" />
        </mxCell>
        <mxCell id="BQ4N9j2RJxe5oMDn88Q8-114" value="Usuario" style="swimlane;html=1;startSize=20;" vertex="1" parent="BQ4N9j2RJxe5oMDn88Q8-84">
          <mxGeometry x="930" y="20" width="360" height="1760" as="geometry" />
        </mxCell>
        <mxCell id="BQ4N9j2RJxe5oMDn88Q8-115" style="edgeStyle=orthogonalEdgeStyle;rounded=0;orthogonalLoop=1;jettySize=auto;html=1;" edge="1" parent="BQ4N9j2RJxe5oMDn88Q8-114" source="BQ4N9j2RJxe5oMDn88Q8-116" target="BQ4N9j2RJxe5oMDn88Q8-118">
          <mxGeometry relative="1" as="geometry" />
        </mxCell>
        <mxCell id="BQ4N9j2RJxe5oMDn88Q8-116" value="Usuario Registrado" style="shape=note;whiteSpace=wrap;html=1;rounded=0;shadow=0;comic=0;labelBackgroundColor=none;strokeWidth=1;fontFamily=Verdana;fontSize=12;align=center;size=20;" vertex="1" parent="BQ4N9j2RJxe5oMDn88Q8-114">
          <mxGeometry x="240" y="40" width="90" height="56" as="geometry" />
        </mxCell>
        <mxCell id="BQ4N9j2RJxe5oMDn88Q8-117" style="edgeStyle=orthogonalEdgeStyle;rounded=0;orthogonalLoop=1;jettySize=auto;html=1;" edge="1" parent="BQ4N9j2RJxe5oMDn88Q8-114" source="BQ4N9j2RJxe5oMDn88Q8-118" target="BQ4N9j2RJxe5oMDn88Q8-120">
          <mxGeometry relative="1" as="geometry" />
        </mxCell>
        <mxCell id="BQ4N9j2RJxe5oMDn88Q8-118" value="" style="ellipse;whiteSpace=wrap;html=1;rounded=0;shadow=0;comic=0;labelBackgroundColor=none;strokeWidth=1;fillColor=#000000;fontFamily=Verdana;fontSize=12;align=center;" vertex="1" parent="BQ4N9j2RJxe5oMDn88Q8-114">
          <mxGeometry x="160" y="48" width="40" height="40" as="geometry" />
        </mxCell>
        <mxCell id="BQ4N9j2RJxe5oMDn88Q8-119" style="edgeStyle=orthogonalEdgeStyle;rounded=0;orthogonalLoop=1;jettySize=auto;html=1;" edge="1" parent="BQ4N9j2RJxe5oMDn88Q8-114" source="BQ4N9j2RJxe5oMDn88Q8-120" target="BQ4N9j2RJxe5oMDn88Q8-121">
          <mxGeometry relative="1" as="geometry" />
        </mxCell>
        <mxCell id="BQ4N9j2RJxe5oMDn88Q8-120" value="Selecciona inicio sesion" style="rounded=1;whiteSpace=wrap;html=1;shadow=0;comic=0;labelBackgroundColor=none;strokeWidth=1;fontFamily=Verdana;fontSize=12;align=center;arcSize=50;" vertex="1" parent="BQ4N9j2RJxe5oMDn88Q8-114">
          <mxGeometry x="130" y="160" width="100" height="50" as="geometry" />
        </mxCell>
        <mxCell id="BQ4N9j2RJxe5oMDn88Q8-121" value="Se autentifica" style="rounded=1;whiteSpace=wrap;html=1;shadow=0;comic=0;labelBackgroundColor=none;strokeWidth=1;fontFamily=Verdana;fontSize=12;align=center;arcSize=50;" vertex="1" parent="BQ4N9j2RJxe5oMDn88Q8-114">
          <mxGeometry x="130" y="270" width="100" height="50" as="geometry" />
        </mxCell>
        <mxCell id="BQ4N9j2RJxe5oMDn88Q8-122" value="Seleccionar Configuracion de Cuenta" style="rounded=1;whiteSpace=wrap;html=1;shadow=0;comic=0;labelBackgroundColor=none;strokeWidth=1;fontFamily=Verdana;fontSize=12;align=center;arcSize=50;" vertex="1" parent="BQ4N9j2RJxe5oMDn88Q8-114">
          <mxGeometry x="111.25" y="590" width="118.75" height="60" as="geometry" />
        </mxCell>
        <mxCell id="BQ4N9j2RJxe5oMDn88Q8-123" value="Seleccionar Cuenta" style="rounded=1;whiteSpace=wrap;html=1;shadow=0;comic=0;labelBackgroundColor=none;strokeWidth=1;fontFamily=Verdana;fontSize=12;align=center;arcSize=50;" vertex="1" parent="BQ4N9j2RJxe5oMDn88Q8-114">
          <mxGeometry x="100" y="430" width="118.75" height="60" as="geometry" />
        </mxCell>
        <mxCell id="BQ4N9j2RJxe5oMDn88Q8-124" value="Seleccionar Cambio de contraseña" style="rounded=1;whiteSpace=wrap;html=1;shadow=0;comic=0;labelBackgroundColor=none;strokeWidth=1;fontFamily=Verdana;fontSize=12;align=center;arcSize=50;" vertex="1" parent="BQ4N9j2RJxe5oMDn88Q8-114">
          <mxGeometry x="90" y="760" width="118.75" height="60" as="geometry" />
        </mxCell>
        <mxCell id="BQ4N9j2RJxe5oMDn88Q8-125" style="edgeStyle=orthogonalEdgeStyle;rounded=0;orthogonalLoop=1;jettySize=auto;html=1;" edge="1" parent="BQ4N9j2RJxe5oMDn88Q8-114" source="BQ4N9j2RJxe5oMDn88Q8-126" target="BQ4N9j2RJxe5oMDn88Q8-127">
          <mxGeometry relative="1" as="geometry" />
        </mxCell>
        <mxCell id="BQ4N9j2RJxe5oMDn88Q8-126" value="Introducir nueva contraseña" style="rounded=1;whiteSpace=wrap;html=1;shadow=0;comic=0;labelBackgroundColor=none;strokeWidth=1;fontFamily=Verdana;fontSize=12;align=center;arcSize=50;" vertex="1" parent="BQ4N9j2RJxe5oMDn88Q8-114">
          <mxGeometry x="90" y="910" width="118.75" height="60" as="geometry" />
        </mxCell>
        <mxCell id="BQ4N9j2RJxe5oMDn88Q8-127" value="Confirmar cambio de contraseña" style="rounded=1;whiteSpace=wrap;html=1;shadow=0;comic=0;labelBackgroundColor=none;strokeWidth=1;fontFamily=Verdana;fontSize=12;align=center;arcSize=50;" vertex="1" parent="BQ4N9j2RJxe5oMDn88Q8-114">
          <mxGeometry x="90" y="1030" width="118.75" height="60" as="geometry" />
        </mxCell>
        <mxCell id="BQ4N9j2RJxe5oMDn88Q8-128" style="edgeStyle=orthogonalEdgeStyle;rounded=0;orthogonalLoop=1;jettySize=auto;html=1;" edge="1" parent="BQ4N9j2RJxe5oMDn88Q8-84" source="BQ4N9j2RJxe5oMDn88Q8-110" target="BQ4N9j2RJxe5oMDn88Q8-99">
          <mxGeometry relative="1" as="geometry">
            <Array as="points">
              <mxPoint x="842" y="1415" />
            </Array>
          </mxGeometry>
        </mxCell>
        <mxCell id="BQ4N9j2RJxe5oMDn88Q8-129" value="SI" style="edgeLabel;html=1;align=center;verticalAlign=middle;resizable=0;points=[];" vertex="1" connectable="0" parent="BQ4N9j2RJxe5oMDn88Q8-128">
          <mxGeometry x="-0.4773" y="7" relative="1" as="geometry">
            <mxPoint x="58" y="-42" as="offset" />
          </mxGeometry>
        </mxCell>
        <mxCell id="BQ4N9j2RJxe5oMDn88Q8-130" style="edgeStyle=orthogonalEdgeStyle;rounded=0;orthogonalLoop=1;jettySize=auto;html=1;" edge="1" parent="BQ4N9j2RJxe5oMDn88Q8-84" source="BQ4N9j2RJxe5oMDn88Q8-99" target="BQ4N9j2RJxe5oMDn88Q8-86">
          <mxGeometry relative="1" as="geometry" />
        </mxCell>
        <mxCell id="BQ4N9j2RJxe5oMDn88Q8-131" style="edgeStyle=orthogonalEdgeStyle;rounded=0;orthogonalLoop=1;jettySize=auto;html=1;" edge="1" parent="BQ4N9j2RJxe5oMDn88Q8-84" source="BQ4N9j2RJxe5oMDn88Q8-86" target="BQ4N9j2RJxe5oMDn88Q8-112">
          <mxGeometry relative="1" as="geometry">
            <Array as="points">
              <mxPoint x="120" y="1552" />
            </Array>
          </mxGeometry>
        </mxCell>
      </root>
    </mxGraphModel>
  </diagram>
</mxfile>
